<?xml version="1.0" encoding="utf-8"?>
<!-- Generator: Adobe Illustrator 16.0.3, SVG Export Plug-In . SVG Version: 6.00 Build 0)  -->
<svg version="1.2" baseProfile="tiny" xmlns="http://www.w3.org/2000/svg" xmlns:xlink="http://www.w3.org/1999/xlink" x="0px"
	 y="0px" width="960px" height="560px" viewBox="0 0 960 560" xml:space="preserve">
<g id="Calque_3" display="none">
</g>
<g id="Human_x5F_body">
</g>
<g id="Calque_7">
</g>
<g id="Heart" display="none">
</g>
<g id="Calque_4">
</g>
<g id="Calque_5">
	<path display="none" fill="#8E5555" d="M484.201,133.501c9.355,49.895,38.939,91.153,68.816,127.918
		c34.467,45.96,39.063,87.324,20.682,142.477c-27.578,89.62-114.896,78.127-176.943,18.381
		c-96.512-94.215,42.365-203.235,77.824-288.658C475.993,127.87,482.642,125.187,484.201,133.501z"/>
	<path fill="#FF1A1A" d="M496.672,104.4c9.357,49.896,38.941,91.153,68.818,127.918c34.467,45.96,39.063,87.324,20.682,142.477
		c-27.58,89.62-114.896,78.127-176.943,18.381c-96.513-94.215,42.365-203.235,77.824-288.658
		C488.465,98.769,495.113,96.085,496.672,104.4z"/>
</g>
<g id="Calque_6">
</g>
</svg>
