<?xml version="1.0" encoding="UTF-8"?>
<svg baseProfile="tiny" version="1.2" viewBox="0 0 960 560" xml:space="preserve" xmlns="http://www.w3.org/2000/svg">
<g display="none">
	<g display="inline">
		<path d="m419.2 144.28c0.757-5.69 0.803-8.915-0.929-14.128-1.043-3.141-2.435-5.245-4.543-7.821-3.683-4.501-5.219-9.257-6.905-14.726-2.514-8.158-0.866-17.998 2.684-25.701 3.809-8.265 12.132-12.655 20.923-13.545 8.292-0.84 14.897 2.022 19.19 9.192 4.201 7.017 6.267 14.186 4.618 22.199-1.639 7.964-4.84 15.901-8.95 22.901-1.835 3.125-2.816 5.008-3.648 8.669-1.089 4.794-1.25 9.559-0.638 14.434 0.11 0.878 0.604 1.41 1.5 1.5 9.08 0.916 19.83 2.099 26.246 9.437 4.848 5.545 8.04 12.759 11.063 19.392 8.732 19.156 15.173 39.411 21.488 59.462 2.826 8.974 5.546 17.98 8.262 26.988 2.228 7.386 3.568 15.412 10.052 20.321 4.406 3.336 6.717 5.081 6.89 11.15 0.168 5.913-3.431 11.897-8.399 14.896-10.84 6.539-16.407-6.324-18.872-14.21-3.47-11.104-4.797-22.763-6.889-34.17-1.883-10.272-5.837-20.353-9.283-30.178-3.956-11.28-8.162-22.553-13.357-33.33-1.337-2.773-5.777-13.872-10.598-11.954-0.63 0.25-1.101 0.723-1.101 1.446-2e-3 7.272-0.103 14.541-0.298 21.81-0.149 5.555-0.333 11.109-0.517 16.664-0.223 6.749 0.982 13.151 1.987 19.816 2.045 13.574 3.649 27.198 5.866 40.749 2.201 13.451 4.186 26.751 4.58 40.396 0.468 16.207 0.461 32.425 0.445 48.638-0.031 30.216-1.151 61.115 3.055 91.119 0.873 6.227 2.293 12.354 4.255 18.325 1.331 4.053 3.282 7.848 4.565 11.916 1.818 5.768 4.203 15.834-3.37 18.403-4.849 1.646-10.982-1e-3 -14.378-3.682-3.245-3.517-3.953-9.224-4.75-13.736-2.345-13.273-5.111-26.456-7.256-39.77-4.822-29.927-7.94-60.107-10.142-90.332-0.837-11.492-1.277-23.018-2.718-34.458-1.211-9.616-3.051-19.658-8.029-28.115-0.715-1.216-2.278-0.793-2.742 0.358-11.288 28.016-11.603 58.318-12.322 88.067-0.361 14.913-0.863 29.842-1.338 44.754-0.502 15.793-1.475 31.672-4.331 47.233-1.942 10.577-4.868 26.992-15.529 32.502-5.717 2.955-13.275-0.438-17.378-4.578-4.222-4.258 0.443-10.456 3.03-14.177 2.91-4.187 5.981-8.176 7.76-13.005 2.165-5.874 1.363-13.614 1.225-19.729-0.183-8.072-0.118-16.089 0.325-24.153 0.882-16.033 2.588-31.975 2.489-48.052-0.188-30.604-3.225-61.158-1.208-91.761 1.554-23.575 7.876-46.501 10.692-69.923 1.796-14.94 1.964-31.467-1.524-46.18-0.213-0.899-1.415-1.436-2.203-0.896-5.173 3.539-7.996 9.861-10.387 15.427-3.671 8.545-6.3 17.533-8.793 26.478-2.563 9.192-4.816 18.466-7.228 27.698-1.835 7.029-4.301 13.842-6.17 20.851-2.854 10.702-4.759 23.282-14.424 30.122-4.578 3.24-10.245 2.902-13.215-2.115-3.74-6.318-0.747-13.271 2.942-18.647 3.146-4.585 6.498-8.866 8.478-14.118 2.277-6.038 4.143-12.272 6.156-18.401 3.891-11.844 7.572-23.735 10.483-35.862 2.31-9.621 4.213-19.332 7.113-28.803 2.913-9.513 7.423-17.849 12.486-26.336 6.357-10.657 20.472-14.799 32.014-15.221 1.929-0.07 1.936-3.071 0-3-15.446 0.564-28.404 6.81-36.62 19.853-13.642 21.656-15.863 48.001-23.125 72.051-3.717 12.308-7.076 25.463-12.34 37.209-2.37 5.288-6.495 9.68-9.503 14.596-2.603 4.255-2.996 8.634-2.282 13.5 1.15 7.836 8.12 12.143 15.521 9.624 8.861-3.015 13.024-12.465 15.627-20.621 5.486-17.185 9.922-34.772 14.468-52.229 2.592-9.952 5.335-19.886 8.835-29.563 2.375-6.567 5.389-15.735 11.477-19.899-0.734-0.299-1.469-0.598-2.203-0.896 5.582 23.55 1.407 48.919-2.848 72.29-1.734 9.527-3.75 19.013-4.99 28.624-1.956 15.158-2.319 30.422-2.102 45.688 0.443 31.134 2.783 61.906 0.459 93.031-1.169 15.656-1.224 31.076-1.335 46.749-0.051 7.104-1.082 13.014-5.01 18.953-2.658 4.02-6.185 7.814-7.845 12.409-4.512 12.492 13.361 20.414 23.131 15.364 9.95-5.142 13.358-19.732 15.544-29.606 6.107-27.578 5.149-56.237 6.281-84.301 1.361-33.735-0.256-68.277 12.606-100.2-0.914 0.12-1.828 0.239-2.742 0.358 6.189 10.514 7.493 23.604 8.58 35.512 1.25 13.684 1.832 27.43 2.973 41.124 2.643 31.736 6.598 63.369 12.324 94.7 1.191 6.52 2.628 12.994 3.775 19.521 0.801 4.563 1.624 9.06 3.71 13.236 3.483 6.974 13.416 10.071 20.489 6.946 6.096-2.694 6.611-9.266 5.816-15.12-1.333-9.821-6.627-18.671-8.829-28.317-3.308-14.491-3.358-29.581-4.043-44.358-0.75-16.172-0.46-32.438-0.444-48.623 0.03-29.272 0.86-58.639-3.809-87.622-2.343-14.546-4.294-29.12-6.428-43.691-0.745-5.089-1.525-10.174-2.304-15.258-1.095-7.151-0.127-14.79 0.087-22.014 0.225-7.56 0.377-15.119 0.395-22.682 6e-3 -0.872 6e-3 -1.742 6e-3 -2.612-0.367 0.482-0.734 0.964-1.101 1.446 2.353-0.936 7.699 11.582 8.453 13.2 4.191 9 7.655 18.351 10.999 27.691 3.058 8.544 5.924 17.165 8.514 25.862 2.202 7.396 3.002 15.199 4.357 22.779 2.014 11.258 5.294 38.916 22.628 35.635 8.631-1.634 13.801-9.75 14.615-18.063 0.338-3.451-0.325-7.875-2.778-10.52-2.848-3.07-6.763-4.528-9.178-8.101-3.196-4.73-4.273-12.102-5.915-17.544-2.073-6.872-4.16-13.739-6.292-20.592-4.82-15.493-9.876-30.925-15.634-46.098-4.407-11.614-9.069-23.624-16.036-33.983-7.154-10.639-19.094-12.749-31.132-13.963l1.5 1.5c-0.757-6.024 4e-3 -11.53 1.414-17.386 0.715-2.972 3.58-6.069 4.964-8.86 3.799-7.664 6.825-16.176 7.634-24.726 0.676-7.143-3.47-15.641-7.484-21.335-4.422-6.273-11.325-8.398-18.729-8.179-7.957 0.235-15.979 3.528-21.266 9.535-5.325 6.05-6.929 14.48-7.736 22.237-0.999 9.598 2.837 19.991 8.808 27.412 2.467 3.065 3.373 5.85 4.866 9.373 1.334 3.149 0.156 7.234-0.272 10.456-0.256 1.913 2.748 1.889 2.999 0z" fill="#1C0BFF"/>
	</g>
</g>

	<path d="m480.27 130.48c1.751-12.743 0.504-11.387-1.493-16.02-1.274-2.956-6.96-7.616-9.022-13.709-1.031-4.062-3.609-10.154-3.609-14.217 1.031-18.278 6.187-31.479 25.778-34.525 17.527-2.031 22.684 7.108 27.838 22.339 3.094 8.124-6.438 31.793-12.115 38.334-1.221 5.331-3.097 10.789-1.804 19.293 14.876 1.409 19.688 3.392 26.034 7.87 16.597 14.562 38.748 91.717 47.688 120.33 4.125 14.217 14.436 8.124 14.436 22.34 0 9.14-8.248 21.324-20.621 17.263s-15.467-42.987-18.561-55.172c-6.186-21.325-25.089-74.467-31.447-71.251 0 12.186-0.126 18.264-1.031 44.68 5.156 33.001 3.501 23.776 5.671 39.095 3.093 21.833 6.636 36.048 7.218 53.819 1.201 36.664 0 72.098 1.031 108.65 1.031 21.323 1.031 44.171 10.311 63.465 3.094 8.124 9.279 27.924-11.342 24.879-12.373-2.031-12.373-15.232-14.436-24.37-9.279-44.681-14.435-89.36-17.527-135.06-1.031-16.249-2.063-41.635-10.312-54.836-14.435 34.525-11.342 72.098-13.404 109.67-1.031 19.296 2.062 126.93-37.119 105.61-16.497-9.141 2.062-20.311 6.187-32.496 2.062-9.139 1.031-19.293 1.031-28.433 0-20.309 3.093-40.618 3.093-60.927 0-37.572-5.155-79.205 1.031-116.78 2.062-13.201 4.981-24.301 8.442-48.723 1.853-13.074 1.869-36.575-1.225-48.76-14.435 9.139-24.746 69.05-30.932 84.282-3.093 9.139-6.187 27.417-12.373 33.51-10.311 12.185-23.715 8.124-22.684-8.124 0.402-7.518 10.275-15.288 13.404-24.371 4.903-14.229 12.319-36.007 15.466-48.403 6.187-23.355 7.562-41.633 21.997-62.958 0 0 9.08-15.746 34.401-16.304z" display="none" fill="#8C8888"/>
	<path d="m490.7 124.28c1.699-12.549 0.489-11.214-1.448-15.776-1.236-2.911-6.75-7.5-8.75-13.5-1-4-3.5-10-3.5-14 1-18 6-31 25-34 17-2 22 7 27 22 3 8-6.244 31.309-11.75 37.75-1.185 5.25-3.004 10.625-1.75 19 14.428 1.387 19.096 3.34 25.25 7.75 16.096 14.34 37.58 90.321 46.25 118.5 4 14 14 8 14 22 0 9-8 21-20 17s-15-42.333-18-54.333c-6-21-24.333-73.333-30.5-70.167 0 12-0.122 17.985-1 44 5 32.5 3.396 23.415 5.5 38.5 3 21.5 6.436 35.5 7 53 1.165 36.106 0 71 1 107 1 21 1 43.5 10 62.5 3 8 9 27.5-11 24.5-12-2-12-15-14-24-9-44-14-88-17-133-1-16-2-41-10-54-14 34-11 71-13 108-1 19 2 125-36 104-16-9 2-20 6-32 2-9 1-19 1-28 0-20 3-40 3-60 0-37-5-78 1-115 2-13 4.831-23.931 8.188-47.981 1.796-12.875 1.812-36.019-1.188-48.019-14 9-24 68-30 83-3 9-6 27-12 33-10 12-23 8-22-8 0.39-7.403 9.965-15.056 13-24 4.755-14.012 11.948-35.459 15-47.667 6-23 7.334-41 21.334-62 0 0 8.807-15.507 33.364-16.057z" fill="#C4C4C4"/>


<g display="none">
	<g display="inline">
		<path d="m536.81 87.567c-9.221-9.221-21.429-14.261-34.458-14.261s-25.274 5.078-34.495 14.299l-4.816 4.815-4.891-4.891c-9.221-9.221-21.503-14.335-34.533-14.335-12.992 0-25.237 5.077-34.42 14.261-9.221 9.222-14.298 21.467-14.261 34.496 0 13.029 5.115 25.237 14.336 34.458l70.111 70.11c0.971 0.971 2.277 1.494 3.546 1.494s2.575-0.485 3.546-1.456l70.261-69.999c9.222-9.221 14.298-21.466 14.298-34.496 0.037-13.028-5.004-25.273-14.224-34.495zm-7.168 61.86-66.713 66.452-66.564-66.564c-7.317-7.317-11.349-17.023-11.349-27.365 0-10.341 3.995-20.048 11.312-27.328 7.28-7.28 16.986-11.312 27.29-11.312 10.341 0 20.085 4.032 27.402 11.349l8.437 8.437c1.979 1.979 5.152 1.979 7.13 0l8.362-8.362c7.317-7.317 17.062-11.349 27.365-11.349s20.01 4.032 27.327 11.312c7.317 7.317 11.313 17.024 11.313 27.365 0.036 10.342-3.995 20.048-11.312 27.365z"/>
	</g>
</g>



</svg>