<?xml version="1.0" encoding="UTF-8"?>
<svg baseProfile="tiny" version="1.2" viewBox="0 0 960 560" xml:space="preserve" xmlns="http://www.w3.org/2000/svg">



	<path d="m307.04 431.44c-3.726-46.941 79.726-21.608 105.8-30.55 36.511-12.666 8.941-78.235-2.235-100.59-9.687-17.883-23.844-31.294-32.039-49.922-6.706-15.647-29.06-35.765-25.334-53.648 5.961-28.314 41.726 11.177 47.687 20.118 11.177 16.392 20.118 34.275 32.04 49.922 3.726 5.961 15.646 25.333 25.333 21.607 5.216-2.235 5.216-17.882 5.216-23.843 0-17.883-10.432-35.021-14.902-52.903-3.725-17.137-9.686-33.53-9.686-50.667 0-16.393-1.49-26.079 17.137-26.079 19.373 0 17.138 10.432 17.883 26.079 0.745 18.627 6.706 35.02 11.177 52.157 4.471 15.647 5.216 43.961 17.138 55.138 20.117 19.372 15.646-16.393 17.882-28.314 4.471-25.333-2.98-53.647 2.98-78.236 4.471-20.118 29.853-26.824 32.833-2.98 1.49 14.157 0.047 29.804 0.047 44.706v42.471c0 8.196-2.283 44.706 12.619 35.02 5.215-3.726 7.428-17.882 11.152-23.098 6.706-10.432 14.146-18.628 20.106-29.06 6.706-11.921 17.877-36.51 35.759-25.333 17.138 10.432 1.487 33.53-5.218 43.961-9.687 15.647-17.14 34.274-24.591 51.412-11.176 30.55 0.745 66.314-8.941 96.864-4.471 16.392-12.668 41.726-24.59 54.393-12.666 12.666-30.549 14.156-47.687 17.137-38 5.961-71.53 0-109.53-7.45-18.628-3.726-38-4.471-56.628-8.941-14.902-2.98-38.001-8.941-49.922-18.628" display="none" fill="#9E9057"/>
	<path d="m315.98 413.55c-3.725-46.941 79.727-21.607 105.81-30.549 36.51-12.667 8.941-78.236-2.235-100.59-9.687-17.882-23.844-31.294-32.039-49.922-6.707-15.647-29.06-35.765-25.334-53.647 5.961-28.314 41.726 11.177 47.687 20.118 11.177 16.393 20.118 34.275 32.04 49.922 3.725 5.961 15.646 25.333 25.333 21.608 5.216-2.235 5.216-17.883 5.216-23.844 0-17.883-10.432-35.02-14.902-52.902-3.725-17.138-9.686-33.53-9.686-50.667 0-16.392-1.49-26.079 17.137-26.079 19.373 0 17.138 10.432 17.883 26.079 0.745 18.628 6.706 35.02 11.177 52.158 4.471 15.647 5.216 43.961 17.138 55.138 20.117 19.373 15.646-16.393 17.882-28.314 4.471-25.334-2.98-53.648 2.98-78.236 4.471-20.118 29.882-26.824 32.861-2.98 1.489 14.155 0.076 29.802 0.076 44.705v42.471c0 8.196-2.312 44.707 12.591 35.021 5.215-3.726 7.411-17.883 11.138-23.099 6.705-10.432 14.138-18.627 20.099-29.059 6.706-11.922 17.873-36.51 35.755-25.333 17.138 10.432 1.485 33.53-5.22 43.961-9.688 15.647-17.14 34.275-24.591 51.412-11.178 30.55 0.743 66.314-8.943 96.864-4.471 16.393-12.668 41.726-24.59 54.393-12.666 12.667-30.549 14.157-47.687 17.138-38 5.961-71.53 0-109.53-7.451-18.628-3.726-38-4.471-56.628-8.941-14.902-2.98-38.001-8.941-49.923-18.628" fill="#E5D388"/>





</svg>
