<?xml version="1.0" encoding="UTF-8"?>
<svg baseProfile="tiny" version="1.2" viewBox="0 0 960 560" xml:space="preserve" xmlns="http://www.w3.org/2000/svg">





	
		<g display="none">
			<path d="m455.56 281.07c-1.091-36.916 36.911-103.15 77.078-105.32 42.345-3.258 71.657 19.542 83.604 59.714 19.537 64.054 0 107.48-48.859 150.91-31.804 27.696-73.146 53.396-99.604 85.959-1.542 1.896-4.176 2.932-5.405-0.682-5.985-24.44-43.728-46.19-67.615-63.563-32.573-22.796-69.483-79.259-72.742-120.51-2.171-36.916 18.456-62.972 57.54-66.23 31.486-2.171 59.711 23.883 72.742 51.023 1.087 3.26 2.17 5.431 3.261 8.691" display="inline" fill="#8E5555"/>
		</g>
		
			<path d="m470.2 249.34c-1.092-36.915 36.911-103.15 77.077-105.31 42.346-3.258 71.658 19.542 83.604 59.714 19.538 64.054 0 107.48-48.859 150.91-31.803 27.695-73.145 53.395-99.604 85.958-1.542 1.897-4.176 2.932-5.406-0.682-5.984-24.44-43.728-46.189-67.615-63.563-32.572-22.796-69.483-79.258-72.741-120.51-2.172-36.915 18.455-62.972 57.54-66.23 31.486-2.171 59.711 23.882 72.742 51.024 1.088 3.257 2.17 5.429 3.262 8.689" fill="#f00"/>
		
	



</svg>
