<?xml version="1.0" encoding="UTF-8"?>
<svg baseProfile="tiny" version="1.2" viewBox="0 0 960 560" xml:space="preserve" xmlns="http://www.w3.org/2000/svg">







	<g display="none">
		<g display="inline">
			<path d="m649.54 308.23c0.814 37.558-3.34 75.097-12.322 111.6-4.119 18.075-20.467 31.157-39.023 31.157-2.857 0-5.734-0.298-8.537-0.91-1.225-0.279-2.43-0.595-3.6-0.964-0.092-0.038-0.205-0.057-0.297-0.095-30.303-10.058-56.004-30.692-72.371-58.1-16.349-27.391-22.342-59.752-16.849-91.168l9.37-56.562 0.02-0.073c-4.045-3.638-7.106-8.722-9.984-13.083-5.808-8.795-11.262-19.02-19.262-25.997-14.584-12.749-36.313 1.392-52.96 9.334l14.399 86.381c5.475 31.416-0.5 63.777-16.848 91.168-16.367 27.407-42.069 48.042-72.371 58.1-0.074 0.021-0.148 0.057-0.223 0.074-3.952 1.264-8.072 1.912-12.21 1.912-16.424 0-30.934-9.873-37.059-24.866-0.815-1.559-1.446-3.228-1.892-5.009-9.02-36.539-13.175-74.154-12.377-111.78-1.355-39.544 6.958-79.292 24.049-114.98 0.148-0.297 0.297-0.334 0.445-0.612 10.58-19.764 31.064-31.751 53.463-31.751h0.445c19.633 0 37.225 8.945 48.414 23.622 0 0.02 0-0.101 0.018-0.083-0.184 0.065 0 0.162 0 0.162 7.646-3.711 15.051-5.875 22.678-9.197 4.584-1.985 11.765-4.487 14.456-9.07 2.857-4.862 4.249-10.066 6.049-15.354 2.505-7.386 2.114-17.15 9.853-21.511 4.695-2.635 10.244-2.748 13.566 2.077 7.979 11.635 0.648 29.04 5.418 41.9 4.008 10.855 11.875 17.814 20.877 24.568 2.521 1.893 5.27 3.86 7.904 6.012 0.092 0.074 0.063 0.148 0.158 0.241 0.053-0.074 0.063-0.149 0.063-0.223v-0.018c7.999-25.664 30.712-43.126 58.138-43.126h0.447c22.396 0 42.883 11.987 53.459 31.751 0.15 0.278 0.316 0.436 0.447 0.733 16.924 35.349 25.237 74.57 24.049 113.74z" fill="#447E84"/>
		</g>
	</g>
	
		
			<path d="m660.67 287.81c0.816 37.558-3.34 75.097-12.322 111.6-4.119 18.074-20.467 31.156-39.023 31.156-2.857 0-5.732-0.297-8.537-0.909-1.225-0.279-2.43-0.595-3.598-0.964-0.094-0.038-0.205-0.057-0.297-0.095-30.305-10.058-56.004-30.692-72.371-58.1-16.35-27.391-22.342-59.752-16.85-91.168l9.371-56.562 0.018-0.073c-4.045-3.638-7.105-8.722-9.982-13.083-5.809-8.795-11.264-19.021-19.262-25.998-14.584-12.749-36.314 1.392-52.961 9.333l14.399 86.381c5.475 31.416-0.5 63.777-16.848 91.168-16.367 27.407-42.069 48.042-72.37 58.1-0.074 0.021-0.148 0.057-0.223 0.074-3.953 1.264-8.074 1.912-12.211 1.912-16.424 0-30.934-9.873-37.059-24.866-0.815-1.559-1.446-3.228-1.893-5.009-9.019-36.539-13.174-74.154-12.377-111.78-1.355-39.544 6.959-79.292 24.05-114.98 0.148-0.297 0.298-0.628 0.446-0.906 10.579-19.761 31.063-32.042 53.461-32.042h0.446c19.633 0 37.223 9.239 48.413 23.916 0 0.02 0 0.046 0.019 0.064-0.186 0.065 0 0.236 0 0.236 7.646-3.711 15.05-5.839 22.678-9.161 4.582-1.985 11.764-4.469 14.455-9.052 2.857-4.862 4.25-10.057 6.049-15.344 2.504-7.386 2.115-17.146 9.854-21.507 4.695-2.635 10.244-2.746 13.565 2.079 7.979 11.635 0.648 29.041 5.418 41.901 4.009 10.855 11.876 17.814 20.876 24.568 2.523 1.893 5.27 3.86 7.904 6.013 0.094 0.074-3e-3 0.148 0.091 0.241 0.055-0.074-3e-3 -0.148-3e-3 -0.223v-0.018c8-25.663 30.846-43.713 58.273-43.713h0.445c22.396 0 42.883 12.281 53.461 32.045 0.148 0.278 0.314 0.583 0.445 0.88 16.925 35.35 25.237 74.717 24.05 113.89z" fill="#55B7CE"/>
		
	

</svg>
